G04 #@! TF.GenerationSoftware,KiCad,Pcbnew,(5.1.5)-3*
G04 #@! TF.CreationDate,2022-03-24T10:50:37-07:00*
G04 #@! TF.ProjectId,wiijoy,7769696a-6f79-42e6-9b69-6361645f7063,rev?*
G04 #@! TF.SameCoordinates,Original*
G04 #@! TF.FileFunction,Soldermask,Top*
G04 #@! TF.FilePolarity,Negative*
%FSLAX46Y46*%
G04 Gerber Fmt 4.6, Leading zero omitted, Abs format (unit mm)*
G04 Created by KiCad (PCBNEW (5.1.5)-3) date 2022-03-24 10:50:37*
%MOMM*%
%LPD*%
G04 APERTURE LIST*
%ADD10C,0.100000*%
G04 APERTURE END LIST*
D10*
G36*
X41892972Y6196422D02*
G01*
X33013227Y6196422D01*
X33013227Y12868586D01*
X41892972Y12868586D01*
X41892972Y6196422D01*
G37*
X41892972Y6196422D02*
X33013227Y6196422D01*
X33013227Y12868586D01*
X41892972Y12868586D01*
X41892972Y6196422D01*
G36*
X3560600Y2908650D02*
G01*
X179423Y2908650D01*
X179423Y5038988D01*
X3560600Y5038988D01*
X3560600Y2908650D01*
G37*
X3560600Y2908650D02*
X179423Y2908650D01*
X179423Y5038988D01*
X3560600Y5038988D01*
X3560600Y2908650D01*
G36*
X3560600Y5676134D02*
G01*
X179423Y5676134D01*
X179423Y7806472D01*
X3560600Y7806472D01*
X3560600Y5676134D01*
G37*
X3560600Y5676134D02*
X179423Y5676134D01*
X179423Y7806472D01*
X3560600Y7806472D01*
X3560600Y5676134D01*
G36*
X3546919Y8496996D02*
G01*
X165742Y8496996D01*
X165742Y10627334D01*
X3546919Y10627334D01*
X3546919Y8496996D01*
G37*
X3546919Y8496996D02*
X165742Y8496996D01*
X165742Y10627334D01*
X3546919Y10627334D01*
X3546919Y8496996D01*
G36*
X3566464Y11213665D02*
G01*
X185287Y11213665D01*
X185287Y13344003D01*
X3566464Y13344003D01*
X3566464Y11213665D01*
G37*
X3566464Y11213665D02*
X185287Y11213665D01*
X185287Y13344003D01*
X3566464Y13344003D01*
X3566464Y11213665D01*
G36*
X3586008Y14008511D02*
G01*
X204831Y14008511D01*
X204831Y16138849D01*
X3586008Y16138849D01*
X3586008Y14008511D01*
G37*
X3586008Y14008511D02*
X204831Y14008511D01*
X204831Y16138849D01*
X3586008Y16138849D01*
X3586008Y14008511D01*
G36*
X161088073Y-110400138D02*
G01*
X161215649Y-110452982D01*
X161330459Y-110529695D01*
X161428105Y-110627341D01*
X161504818Y-110742151D01*
X161557662Y-110869727D01*
X161584600Y-111005156D01*
X161584600Y-111143244D01*
X161557662Y-111278673D01*
X161504818Y-111406249D01*
X161428105Y-111521059D01*
X161330459Y-111618705D01*
X161215649Y-111695418D01*
X161088073Y-111748262D01*
X160952644Y-111775200D01*
X160814556Y-111775200D01*
X160679127Y-111748262D01*
X160551551Y-111695418D01*
X160436741Y-111618705D01*
X160339095Y-111521059D01*
X160262382Y-111406249D01*
X160209538Y-111278673D01*
X160182600Y-111143244D01*
X160182600Y-111005156D01*
X160209538Y-110869727D01*
X160262382Y-110742151D01*
X160339095Y-110627341D01*
X160436741Y-110529695D01*
X160551551Y-110452982D01*
X160679127Y-110400138D01*
X160814556Y-110373200D01*
X160952644Y-110373200D01*
X161088073Y-110400138D01*
G37*
G36*
X157339600Y-111340200D02*
G01*
X155537600Y-111340200D01*
X155537600Y-109538200D01*
X157339600Y-109538200D01*
X157339600Y-111340200D01*
G37*
G36*
X143852112Y-109543127D02*
G01*
X144001412Y-109572824D01*
X144165384Y-109640744D01*
X144312954Y-109739347D01*
X144438453Y-109864846D01*
X144537056Y-110012416D01*
X144604976Y-110176388D01*
X144639600Y-110350459D01*
X144639600Y-110527941D01*
X144604976Y-110702012D01*
X144537056Y-110865984D01*
X144438453Y-111013554D01*
X144312954Y-111139053D01*
X144165384Y-111237656D01*
X144001412Y-111305576D01*
X143852112Y-111335273D01*
X143827342Y-111340200D01*
X143649858Y-111340200D01*
X143625088Y-111335273D01*
X143475788Y-111305576D01*
X143311816Y-111237656D01*
X143164246Y-111139053D01*
X143038747Y-111013554D01*
X142940144Y-110865984D01*
X142872224Y-110702012D01*
X142837600Y-110527941D01*
X142837600Y-110350459D01*
X142872224Y-110176388D01*
X142940144Y-110012416D01*
X143038747Y-109864846D01*
X143164246Y-109739347D01*
X143311816Y-109640744D01*
X143475788Y-109572824D01*
X143625088Y-109543127D01*
X143649858Y-109538200D01*
X143827342Y-109538200D01*
X143852112Y-109543127D01*
G37*
G36*
X146392112Y-109543127D02*
G01*
X146541412Y-109572824D01*
X146705384Y-109640744D01*
X146852954Y-109739347D01*
X146978453Y-109864846D01*
X147077056Y-110012416D01*
X147144976Y-110176388D01*
X147179600Y-110350459D01*
X147179600Y-110527941D01*
X147144976Y-110702012D01*
X147077056Y-110865984D01*
X146978453Y-111013554D01*
X146852954Y-111139053D01*
X146705384Y-111237656D01*
X146541412Y-111305576D01*
X146392112Y-111335273D01*
X146367342Y-111340200D01*
X146189858Y-111340200D01*
X146165088Y-111335273D01*
X146015788Y-111305576D01*
X145851816Y-111237656D01*
X145704246Y-111139053D01*
X145578747Y-111013554D01*
X145480144Y-110865984D01*
X145412224Y-110702012D01*
X145377600Y-110527941D01*
X145377600Y-110350459D01*
X145412224Y-110176388D01*
X145480144Y-110012416D01*
X145578747Y-109864846D01*
X145704246Y-109739347D01*
X145851816Y-109640744D01*
X146015788Y-109572824D01*
X146165088Y-109543127D01*
X146189858Y-109538200D01*
X146367342Y-109538200D01*
X146392112Y-109543127D01*
G37*
G36*
X148932112Y-109543127D02*
G01*
X149081412Y-109572824D01*
X149245384Y-109640744D01*
X149392954Y-109739347D01*
X149518453Y-109864846D01*
X149617056Y-110012416D01*
X149684976Y-110176388D01*
X149719600Y-110350459D01*
X149719600Y-110527941D01*
X149684976Y-110702012D01*
X149617056Y-110865984D01*
X149518453Y-111013554D01*
X149392954Y-111139053D01*
X149245384Y-111237656D01*
X149081412Y-111305576D01*
X148932112Y-111335273D01*
X148907342Y-111340200D01*
X148729858Y-111340200D01*
X148705088Y-111335273D01*
X148555788Y-111305576D01*
X148391816Y-111237656D01*
X148244246Y-111139053D01*
X148118747Y-111013554D01*
X148020144Y-110865984D01*
X147952224Y-110702012D01*
X147917600Y-110527941D01*
X147917600Y-110350459D01*
X147952224Y-110176388D01*
X148020144Y-110012416D01*
X148118747Y-109864846D01*
X148244246Y-109739347D01*
X148391816Y-109640744D01*
X148555788Y-109572824D01*
X148705088Y-109543127D01*
X148729858Y-109538200D01*
X148907342Y-109538200D01*
X148932112Y-109543127D01*
G37*
G36*
X151472112Y-109543127D02*
G01*
X151621412Y-109572824D01*
X151785384Y-109640744D01*
X151932954Y-109739347D01*
X152058453Y-109864846D01*
X152157056Y-110012416D01*
X152224976Y-110176388D01*
X152259600Y-110350459D01*
X152259600Y-110527941D01*
X152224976Y-110702012D01*
X152157056Y-110865984D01*
X152058453Y-111013554D01*
X151932954Y-111139053D01*
X151785384Y-111237656D01*
X151621412Y-111305576D01*
X151472112Y-111335273D01*
X151447342Y-111340200D01*
X151269858Y-111340200D01*
X151245088Y-111335273D01*
X151095788Y-111305576D01*
X150931816Y-111237656D01*
X150784246Y-111139053D01*
X150658747Y-111013554D01*
X150560144Y-110865984D01*
X150492224Y-110702012D01*
X150457600Y-110527941D01*
X150457600Y-110350459D01*
X150492224Y-110176388D01*
X150560144Y-110012416D01*
X150658747Y-109864846D01*
X150784246Y-109739347D01*
X150931816Y-109640744D01*
X151095788Y-109572824D01*
X151245088Y-109543127D01*
X151269858Y-109538200D01*
X151447342Y-109538200D01*
X151472112Y-109543127D01*
G37*
G36*
X154012112Y-109543127D02*
G01*
X154161412Y-109572824D01*
X154325384Y-109640744D01*
X154472954Y-109739347D01*
X154598453Y-109864846D01*
X154697056Y-110012416D01*
X154764976Y-110176388D01*
X154799600Y-110350459D01*
X154799600Y-110527941D01*
X154764976Y-110702012D01*
X154697056Y-110865984D01*
X154598453Y-111013554D01*
X154472954Y-111139053D01*
X154325384Y-111237656D01*
X154161412Y-111305576D01*
X154012112Y-111335273D01*
X153987342Y-111340200D01*
X153809858Y-111340200D01*
X153785088Y-111335273D01*
X153635788Y-111305576D01*
X153471816Y-111237656D01*
X153324246Y-111139053D01*
X153198747Y-111013554D01*
X153100144Y-110865984D01*
X153032224Y-110702012D01*
X152997600Y-110527941D01*
X152997600Y-110350459D01*
X153032224Y-110176388D01*
X153100144Y-110012416D01*
X153198747Y-109864846D01*
X153324246Y-109739347D01*
X153471816Y-109640744D01*
X153635788Y-109572824D01*
X153785088Y-109543127D01*
X153809858Y-109538200D01*
X153987342Y-109538200D01*
X154012112Y-109543127D01*
G37*
G36*
X161584600Y-109107451D02*
G01*
X161587002Y-109131837D01*
X161594115Y-109155286D01*
X161605666Y-109176897D01*
X161621211Y-109195839D01*
X161640153Y-109211384D01*
X161661764Y-109222935D01*
X161685213Y-109230048D01*
X161709599Y-109232450D01*
X161733985Y-109230048D01*
X161757434Y-109222935D01*
X161779044Y-109211384D01*
X161821551Y-109182982D01*
X161949127Y-109130138D01*
X162084556Y-109103200D01*
X162222644Y-109103200D01*
X162358073Y-109130138D01*
X162485649Y-109182982D01*
X162600459Y-109259695D01*
X162698105Y-109357341D01*
X162774818Y-109472151D01*
X162827662Y-109599727D01*
X162854600Y-109735156D01*
X162854600Y-109873244D01*
X162827662Y-110008673D01*
X162774818Y-110136249D01*
X162698105Y-110251059D01*
X162600459Y-110348705D01*
X162485649Y-110425418D01*
X162358073Y-110478262D01*
X162222644Y-110505200D01*
X162084556Y-110505200D01*
X161949127Y-110478262D01*
X161821551Y-110425418D01*
X161706741Y-110348705D01*
X161609095Y-110251059D01*
X161532382Y-110136249D01*
X161479538Y-110008673D01*
X161452600Y-109873244D01*
X161452600Y-109735156D01*
X161479538Y-109599727D01*
X161532382Y-109472151D01*
X161560784Y-109429644D01*
X161572335Y-109408033D01*
X161579448Y-109384584D01*
X161581850Y-109360198D01*
X161579448Y-109335812D01*
X161572335Y-109312363D01*
X161560783Y-109290753D01*
X161545238Y-109271811D01*
X161526296Y-109256266D01*
X161504685Y-109244715D01*
X161481236Y-109237602D01*
X161456851Y-109235200D01*
X160182600Y-109235200D01*
X160182600Y-107833200D01*
X161584600Y-107833200D01*
X161584600Y-109107451D01*
G37*
G36*
X169454600Y-110098229D02*
G01*
X167552600Y-110098229D01*
X167552600Y-108196229D01*
X169454600Y-108196229D01*
X169454600Y-110098229D01*
G37*
G36*
X166240995Y-108232775D02*
G01*
X166414066Y-108304463D01*
X166414067Y-108304464D01*
X166569827Y-108408539D01*
X166702290Y-108541002D01*
X166702291Y-108541004D01*
X166806366Y-108696763D01*
X166878054Y-108869834D01*
X166914600Y-109053562D01*
X166914600Y-109240896D01*
X166878054Y-109424624D01*
X166806366Y-109597695D01*
X166754681Y-109675047D01*
X166702290Y-109753456D01*
X166569827Y-109885919D01*
X166491418Y-109938310D01*
X166414066Y-109989995D01*
X166240995Y-110061683D01*
X166057267Y-110098229D01*
X165869933Y-110098229D01*
X165686205Y-110061683D01*
X165513134Y-109989995D01*
X165435782Y-109938310D01*
X165357373Y-109885919D01*
X165224910Y-109753456D01*
X165172519Y-109675047D01*
X165120834Y-109597695D01*
X165049146Y-109424624D01*
X165012600Y-109240896D01*
X165012600Y-109053562D01*
X165049146Y-108869834D01*
X165120834Y-108696763D01*
X165224909Y-108541004D01*
X165224910Y-108541002D01*
X165357373Y-108408539D01*
X165513133Y-108304464D01*
X165513134Y-108304463D01*
X165686205Y-108232775D01*
X165869933Y-108196229D01*
X166057267Y-108196229D01*
X166240995Y-108232775D01*
G37*
G36*
X157321828Y-105810903D02*
G01*
X157476700Y-105875053D01*
X157616081Y-105968185D01*
X157734615Y-106086719D01*
X157827747Y-106226100D01*
X157891897Y-106380972D01*
X157924600Y-106545384D01*
X157924600Y-106713016D01*
X157891897Y-106877428D01*
X157827747Y-107032300D01*
X157734615Y-107171681D01*
X157616081Y-107290215D01*
X157476700Y-107383347D01*
X157321828Y-107447497D01*
X157157416Y-107480200D01*
X156989784Y-107480200D01*
X156825372Y-107447497D01*
X156670500Y-107383347D01*
X156531119Y-107290215D01*
X156412585Y-107171681D01*
X156319453Y-107032300D01*
X156255303Y-106877428D01*
X156222600Y-106713016D01*
X156222600Y-106545384D01*
X156255303Y-106380972D01*
X156319453Y-106226100D01*
X156412585Y-106086719D01*
X156531119Y-105968185D01*
X156670500Y-105875053D01*
X156825372Y-105810903D01*
X156989784Y-105778200D01*
X157157416Y-105778200D01*
X157321828Y-105810903D01*
G37*
G36*
X147161828Y-105810903D02*
G01*
X147316700Y-105875053D01*
X147456081Y-105968185D01*
X147574615Y-106086719D01*
X147667747Y-106226100D01*
X147731897Y-106380972D01*
X147764600Y-106545384D01*
X147764600Y-106713016D01*
X147731897Y-106877428D01*
X147667747Y-107032300D01*
X147574615Y-107171681D01*
X147456081Y-107290215D01*
X147316700Y-107383347D01*
X147161828Y-107447497D01*
X146997416Y-107480200D01*
X146829784Y-107480200D01*
X146665372Y-107447497D01*
X146510500Y-107383347D01*
X146371119Y-107290215D01*
X146252585Y-107171681D01*
X146159453Y-107032300D01*
X146095303Y-106877428D01*
X146062600Y-106713016D01*
X146062600Y-106545384D01*
X146095303Y-106380972D01*
X146159453Y-106226100D01*
X146252585Y-106086719D01*
X146371119Y-105968185D01*
X146510500Y-105875053D01*
X146665372Y-105810903D01*
X146829784Y-105778200D01*
X146997416Y-105778200D01*
X147161828Y-105810903D01*
G37*
G36*
X168751828Y-103270903D02*
G01*
X168906700Y-103335053D01*
X169046081Y-103428185D01*
X169164615Y-103546719D01*
X169257747Y-103686100D01*
X169321897Y-103840972D01*
X169354600Y-104005384D01*
X169354600Y-104173016D01*
X169321897Y-104337428D01*
X169257747Y-104492300D01*
X169164615Y-104631681D01*
X169046081Y-104750215D01*
X168906700Y-104843347D01*
X168751828Y-104907497D01*
X168587416Y-104940200D01*
X168419784Y-104940200D01*
X168255372Y-104907497D01*
X168100500Y-104843347D01*
X167961119Y-104750215D01*
X167842585Y-104631681D01*
X167749453Y-104492300D01*
X167685303Y-104337428D01*
X167652600Y-104173016D01*
X167652600Y-104005384D01*
X167685303Y-103840972D01*
X167749453Y-103686100D01*
X167842585Y-103546719D01*
X167961119Y-103428185D01*
X168100500Y-103335053D01*
X168255372Y-103270903D01*
X168419784Y-103238200D01*
X168587416Y-103238200D01*
X168751828Y-103270903D01*
G37*
G36*
X159226828Y-102635903D02*
G01*
X159381700Y-102700053D01*
X159521081Y-102793185D01*
X159639615Y-102911719D01*
X159732747Y-103051100D01*
X159796897Y-103205972D01*
X159829600Y-103370384D01*
X159829600Y-103538016D01*
X159796897Y-103702428D01*
X159732747Y-103857300D01*
X159639615Y-103996681D01*
X159521081Y-104115215D01*
X159381700Y-104208347D01*
X159226828Y-104272497D01*
X159062416Y-104305200D01*
X158894784Y-104305200D01*
X158730372Y-104272497D01*
X158575500Y-104208347D01*
X158436119Y-104115215D01*
X158317585Y-103996681D01*
X158224453Y-103857300D01*
X158160303Y-103702428D01*
X158127600Y-103538016D01*
X158127600Y-103370384D01*
X158160303Y-103205972D01*
X158224453Y-103051100D01*
X158317585Y-102911719D01*
X158436119Y-102793185D01*
X158575500Y-102700053D01*
X158730372Y-102635903D01*
X158894784Y-102603200D01*
X159062416Y-102603200D01*
X159226828Y-102635903D01*
G37*
G36*
X146526828Y-102635903D02*
G01*
X146681700Y-102700053D01*
X146821081Y-102793185D01*
X146939615Y-102911719D01*
X147032747Y-103051100D01*
X147096897Y-103205972D01*
X147129600Y-103370384D01*
X147129600Y-103538016D01*
X147096897Y-103702428D01*
X147032747Y-103857300D01*
X146939615Y-103996681D01*
X146821081Y-104115215D01*
X146681700Y-104208347D01*
X146526828Y-104272497D01*
X146362416Y-104305200D01*
X146194784Y-104305200D01*
X146030372Y-104272497D01*
X145875500Y-104208347D01*
X145736119Y-104115215D01*
X145617585Y-103996681D01*
X145524453Y-103857300D01*
X145460303Y-103702428D01*
X145427600Y-103538016D01*
X145427600Y-103370384D01*
X145460303Y-103205972D01*
X145524453Y-103051100D01*
X145617585Y-102911719D01*
X145736119Y-102793185D01*
X145875500Y-102700053D01*
X146030372Y-102635903D01*
X146194784Y-102603200D01*
X146362416Y-102603200D01*
X146526828Y-102635903D01*
G37*
G36*
X149066828Y-102635903D02*
G01*
X149221700Y-102700053D01*
X149361081Y-102793185D01*
X149479615Y-102911719D01*
X149572747Y-103051100D01*
X149636897Y-103205972D01*
X149669600Y-103370384D01*
X149669600Y-103538016D01*
X149636897Y-103702428D01*
X149572747Y-103857300D01*
X149479615Y-103996681D01*
X149361081Y-104115215D01*
X149221700Y-104208347D01*
X149066828Y-104272497D01*
X148902416Y-104305200D01*
X148734784Y-104305200D01*
X148570372Y-104272497D01*
X148415500Y-104208347D01*
X148276119Y-104115215D01*
X148157585Y-103996681D01*
X148064453Y-103857300D01*
X148000303Y-103702428D01*
X147967600Y-103538016D01*
X147967600Y-103370384D01*
X148000303Y-103205972D01*
X148064453Y-103051100D01*
X148157585Y-102911719D01*
X148276119Y-102793185D01*
X148415500Y-102700053D01*
X148570372Y-102635903D01*
X148734784Y-102603200D01*
X148902416Y-102603200D01*
X149066828Y-102635903D01*
G37*
G36*
X151606828Y-102635903D02*
G01*
X151761700Y-102700053D01*
X151901081Y-102793185D01*
X152019615Y-102911719D01*
X152112747Y-103051100D01*
X152176897Y-103205972D01*
X152209600Y-103370384D01*
X152209600Y-103538016D01*
X152176897Y-103702428D01*
X152112747Y-103857300D01*
X152019615Y-103996681D01*
X151901081Y-104115215D01*
X151761700Y-104208347D01*
X151606828Y-104272497D01*
X151442416Y-104305200D01*
X151274784Y-104305200D01*
X151110372Y-104272497D01*
X150955500Y-104208347D01*
X150816119Y-104115215D01*
X150697585Y-103996681D01*
X150604453Y-103857300D01*
X150540303Y-103702428D01*
X150507600Y-103538016D01*
X150507600Y-103370384D01*
X150540303Y-103205972D01*
X150604453Y-103051100D01*
X150697585Y-102911719D01*
X150816119Y-102793185D01*
X150955500Y-102700053D01*
X151110372Y-102635903D01*
X151274784Y-102603200D01*
X151442416Y-102603200D01*
X151606828Y-102635903D01*
G37*
G36*
X154146828Y-102635903D02*
G01*
X154301700Y-102700053D01*
X154441081Y-102793185D01*
X154559615Y-102911719D01*
X154652747Y-103051100D01*
X154716897Y-103205972D01*
X154749600Y-103370384D01*
X154749600Y-103538016D01*
X154716897Y-103702428D01*
X154652747Y-103857300D01*
X154559615Y-103996681D01*
X154441081Y-104115215D01*
X154301700Y-104208347D01*
X154146828Y-104272497D01*
X153982416Y-104305200D01*
X153814784Y-104305200D01*
X153650372Y-104272497D01*
X153495500Y-104208347D01*
X153356119Y-104115215D01*
X153237585Y-103996681D01*
X153144453Y-103857300D01*
X153080303Y-103702428D01*
X153047600Y-103538016D01*
X153047600Y-103370384D01*
X153080303Y-103205972D01*
X153144453Y-103051100D01*
X153237585Y-102911719D01*
X153356119Y-102793185D01*
X153495500Y-102700053D01*
X153650372Y-102635903D01*
X153814784Y-102603200D01*
X153982416Y-102603200D01*
X154146828Y-102635903D01*
G37*
G36*
X162401828Y-102635903D02*
G01*
X162556700Y-102700053D01*
X162696081Y-102793185D01*
X162814615Y-102911719D01*
X162907747Y-103051100D01*
X162971897Y-103205972D01*
X163004600Y-103370384D01*
X163004600Y-103538016D01*
X162971897Y-103702428D01*
X162907747Y-103857300D01*
X162814615Y-103996681D01*
X162696081Y-104115215D01*
X162556700Y-104208347D01*
X162401828Y-104272497D01*
X162237416Y-104305200D01*
X162069784Y-104305200D01*
X161905372Y-104272497D01*
X161750500Y-104208347D01*
X161611119Y-104115215D01*
X161492585Y-103996681D01*
X161399453Y-103857300D01*
X161335303Y-103702428D01*
X161302600Y-103538016D01*
X161302600Y-103370384D01*
X161335303Y-103205972D01*
X161399453Y-103051100D01*
X161492585Y-102911719D01*
X161611119Y-102793185D01*
X161750500Y-102700053D01*
X161905372Y-102635903D01*
X162069784Y-102603200D01*
X162237416Y-102603200D01*
X162401828Y-102635903D01*
G37*
G36*
X156686828Y-102635903D02*
G01*
X156841700Y-102700053D01*
X156981081Y-102793185D01*
X157099615Y-102911719D01*
X157192747Y-103051100D01*
X157256897Y-103205972D01*
X157289600Y-103370384D01*
X157289600Y-103538016D01*
X157256897Y-103702428D01*
X157192747Y-103857300D01*
X157099615Y-103996681D01*
X156981081Y-104115215D01*
X156841700Y-104208347D01*
X156686828Y-104272497D01*
X156522416Y-104305200D01*
X156354784Y-104305200D01*
X156190372Y-104272497D01*
X156035500Y-104208347D01*
X155896119Y-104115215D01*
X155777585Y-103996681D01*
X155684453Y-103857300D01*
X155620303Y-103702428D01*
X155587600Y-103538016D01*
X155587600Y-103370384D01*
X155620303Y-103205972D01*
X155684453Y-103051100D01*
X155777585Y-102911719D01*
X155896119Y-102793185D01*
X156035500Y-102700053D01*
X156190372Y-102635903D01*
X156354784Y-102603200D01*
X156522416Y-102603200D01*
X156686828Y-102635903D01*
G37*
G36*
X144589600Y-104305200D02*
G01*
X142887600Y-104305200D01*
X142887600Y-102603200D01*
X144589600Y-102603200D01*
X144589600Y-104305200D01*
G37*
G36*
X164941828Y-102635903D02*
G01*
X165096700Y-102700053D01*
X165236081Y-102793185D01*
X165354615Y-102911719D01*
X165447747Y-103051100D01*
X165511897Y-103205972D01*
X165544600Y-103370384D01*
X165544600Y-103538016D01*
X165511897Y-103702428D01*
X165447747Y-103857300D01*
X165354615Y-103996681D01*
X165236081Y-104115215D01*
X165096700Y-104208347D01*
X164941828Y-104272497D01*
X164777416Y-104305200D01*
X164609784Y-104305200D01*
X164445372Y-104272497D01*
X164290500Y-104208347D01*
X164151119Y-104115215D01*
X164032585Y-103996681D01*
X163939453Y-103857300D01*
X163875303Y-103702428D01*
X163842600Y-103538016D01*
X163842600Y-103370384D01*
X163875303Y-103205972D01*
X163939453Y-103051100D01*
X164032585Y-102911719D01*
X164151119Y-102793185D01*
X164290500Y-102700053D01*
X164445372Y-102635903D01*
X164609784Y-102603200D01*
X164777416Y-102603200D01*
X164941828Y-102635903D01*
G37*
G36*
X168751828Y-100730903D02*
G01*
X168906700Y-100795053D01*
X169046081Y-100888185D01*
X169164615Y-101006719D01*
X169257747Y-101146100D01*
X169321897Y-101300972D01*
X169354600Y-101465384D01*
X169354600Y-101633016D01*
X169321897Y-101797428D01*
X169257747Y-101952300D01*
X169164615Y-102091681D01*
X169046081Y-102210215D01*
X168906700Y-102303347D01*
X168751828Y-102367497D01*
X168587416Y-102400200D01*
X168419784Y-102400200D01*
X168255372Y-102367497D01*
X168100500Y-102303347D01*
X167961119Y-102210215D01*
X167842585Y-102091681D01*
X167749453Y-101952300D01*
X167685303Y-101797428D01*
X167652600Y-101633016D01*
X167652600Y-101465384D01*
X167685303Y-101300972D01*
X167749453Y-101146100D01*
X167842585Y-101006719D01*
X167961119Y-100888185D01*
X168100500Y-100795053D01*
X168255372Y-100730903D01*
X168419784Y-100698200D01*
X168587416Y-100698200D01*
X168751828Y-100730903D01*
G37*
G36*
X163036828Y-98825903D02*
G01*
X163191700Y-98890053D01*
X163331081Y-98983185D01*
X163449615Y-99101719D01*
X163542747Y-99241100D01*
X163606897Y-99395972D01*
X163639600Y-99560384D01*
X163639600Y-99728016D01*
X163606897Y-99892428D01*
X163542747Y-100047300D01*
X163449615Y-100186681D01*
X163331081Y-100305215D01*
X163191700Y-100398347D01*
X163036828Y-100462497D01*
X162872416Y-100495200D01*
X162704784Y-100495200D01*
X162540372Y-100462497D01*
X162385500Y-100398347D01*
X162246119Y-100305215D01*
X162127585Y-100186681D01*
X162034453Y-100047300D01*
X161970303Y-99892428D01*
X161937600Y-99728016D01*
X161937600Y-99560384D01*
X161970303Y-99395972D01*
X162034453Y-99241100D01*
X162127585Y-99101719D01*
X162246119Y-98983185D01*
X162385500Y-98890053D01*
X162540372Y-98825903D01*
X162704784Y-98793200D01*
X162872416Y-98793200D01*
X163036828Y-98825903D01*
G37*
G36*
X167481828Y-98150903D02*
G01*
X167636700Y-98215053D01*
X167776081Y-98308185D01*
X167894615Y-98426719D01*
X167987747Y-98566100D01*
X168051897Y-98720972D01*
X168084600Y-98885384D01*
X168084600Y-99053016D01*
X168051897Y-99217428D01*
X167987747Y-99372300D01*
X167894615Y-99511681D01*
X167776081Y-99630215D01*
X167636700Y-99723347D01*
X167481828Y-99787497D01*
X167317416Y-99820200D01*
X167149784Y-99820200D01*
X166985372Y-99787497D01*
X166830500Y-99723347D01*
X166691119Y-99630215D01*
X166572585Y-99511681D01*
X166479453Y-99372300D01*
X166415303Y-99217428D01*
X166382600Y-99053016D01*
X166382600Y-98885384D01*
X166415303Y-98720972D01*
X166479453Y-98566100D01*
X166572585Y-98426719D01*
X166691119Y-98308185D01*
X166830500Y-98215053D01*
X166985372Y-98150903D01*
X167149784Y-98118200D01*
X167317416Y-98118200D01*
X167481828Y-98150903D01*
G37*
G36*
X163036828Y-96285903D02*
G01*
X163191700Y-96350053D01*
X163331081Y-96443185D01*
X163449615Y-96561719D01*
X163542747Y-96701100D01*
X163606897Y-96855972D01*
X163639600Y-97020384D01*
X163639600Y-97188016D01*
X163606897Y-97352428D01*
X163542747Y-97507300D01*
X163449615Y-97646681D01*
X163331081Y-97765215D01*
X163191700Y-97858347D01*
X163036828Y-97922497D01*
X162872416Y-97955200D01*
X162704784Y-97955200D01*
X162540372Y-97922497D01*
X162385500Y-97858347D01*
X162246119Y-97765215D01*
X162127585Y-97646681D01*
X162034453Y-97507300D01*
X161970303Y-97352428D01*
X161937600Y-97188016D01*
X161937600Y-97020384D01*
X161970303Y-96855972D01*
X162034453Y-96701100D01*
X162127585Y-96561719D01*
X162246119Y-96443185D01*
X162385500Y-96350053D01*
X162540372Y-96285903D01*
X162704784Y-96253200D01*
X162872416Y-96253200D01*
X163036828Y-96285903D01*
G37*
G36*
X168084600Y-97320200D02*
G01*
X166382600Y-97320200D01*
X166382600Y-95618200D01*
X168084600Y-95618200D01*
X168084600Y-97320200D01*
G37*
G36*
X154146828Y-95015903D02*
G01*
X154301700Y-95080053D01*
X154441081Y-95173185D01*
X154559615Y-95291719D01*
X154652747Y-95431100D01*
X154716897Y-95585972D01*
X154749600Y-95750384D01*
X154749600Y-95918016D01*
X154716897Y-96082428D01*
X154652747Y-96237300D01*
X154559615Y-96376681D01*
X154441081Y-96495215D01*
X154301700Y-96588347D01*
X154146828Y-96652497D01*
X153982416Y-96685200D01*
X153814784Y-96685200D01*
X153650372Y-96652497D01*
X153495500Y-96588347D01*
X153356119Y-96495215D01*
X153237585Y-96376681D01*
X153144453Y-96237300D01*
X153080303Y-96082428D01*
X153047600Y-95918016D01*
X153047600Y-95750384D01*
X153080303Y-95585972D01*
X153144453Y-95431100D01*
X153237585Y-95291719D01*
X153356119Y-95173185D01*
X153495500Y-95080053D01*
X153650372Y-95015903D01*
X153814784Y-94983200D01*
X153982416Y-94983200D01*
X154146828Y-95015903D01*
G37*
G36*
X159226828Y-95015903D02*
G01*
X159381700Y-95080053D01*
X159521081Y-95173185D01*
X159639615Y-95291719D01*
X159732747Y-95431100D01*
X159796897Y-95585972D01*
X159829600Y-95750384D01*
X159829600Y-95918016D01*
X159796897Y-96082428D01*
X159732747Y-96237300D01*
X159639615Y-96376681D01*
X159521081Y-96495215D01*
X159381700Y-96588347D01*
X159226828Y-96652497D01*
X159062416Y-96685200D01*
X158894784Y-96685200D01*
X158730372Y-96652497D01*
X158575500Y-96588347D01*
X158436119Y-96495215D01*
X158317585Y-96376681D01*
X158224453Y-96237300D01*
X158160303Y-96082428D01*
X158127600Y-95918016D01*
X158127600Y-95750384D01*
X158160303Y-95585972D01*
X158224453Y-95431100D01*
X158317585Y-95291719D01*
X158436119Y-95173185D01*
X158575500Y-95080053D01*
X158730372Y-95015903D01*
X158894784Y-94983200D01*
X159062416Y-94983200D01*
X159226828Y-95015903D01*
G37*
G36*
X156686828Y-95015903D02*
G01*
X156841700Y-95080053D01*
X156981081Y-95173185D01*
X157099615Y-95291719D01*
X157192747Y-95431100D01*
X157256897Y-95585972D01*
X157289600Y-95750384D01*
X157289600Y-95918016D01*
X157256897Y-96082428D01*
X157192747Y-96237300D01*
X157099615Y-96376681D01*
X156981081Y-96495215D01*
X156841700Y-96588347D01*
X156686828Y-96652497D01*
X156522416Y-96685200D01*
X156354784Y-96685200D01*
X156190372Y-96652497D01*
X156035500Y-96588347D01*
X155896119Y-96495215D01*
X155777585Y-96376681D01*
X155684453Y-96237300D01*
X155620303Y-96082428D01*
X155587600Y-95918016D01*
X155587600Y-95750384D01*
X155620303Y-95585972D01*
X155684453Y-95431100D01*
X155777585Y-95291719D01*
X155896119Y-95173185D01*
X156035500Y-95080053D01*
X156190372Y-95015903D01*
X156354784Y-94983200D01*
X156522416Y-94983200D01*
X156686828Y-95015903D01*
G37*
G36*
X151606828Y-95015903D02*
G01*
X151761700Y-95080053D01*
X151901081Y-95173185D01*
X152019615Y-95291719D01*
X152112747Y-95431100D01*
X152176897Y-95585972D01*
X152209600Y-95750384D01*
X152209600Y-95918016D01*
X152176897Y-96082428D01*
X152112747Y-96237300D01*
X152019615Y-96376681D01*
X151901081Y-96495215D01*
X151761700Y-96588347D01*
X151606828Y-96652497D01*
X151442416Y-96685200D01*
X151274784Y-96685200D01*
X151110372Y-96652497D01*
X150955500Y-96588347D01*
X150816119Y-96495215D01*
X150697585Y-96376681D01*
X150604453Y-96237300D01*
X150540303Y-96082428D01*
X150507600Y-95918016D01*
X150507600Y-95750384D01*
X150540303Y-95585972D01*
X150604453Y-95431100D01*
X150697585Y-95291719D01*
X150816119Y-95173185D01*
X150955500Y-95080053D01*
X151110372Y-95015903D01*
X151274784Y-94983200D01*
X151442416Y-94983200D01*
X151606828Y-95015903D01*
G37*
G36*
X149066828Y-95015903D02*
G01*
X149221700Y-95080053D01*
X149361081Y-95173185D01*
X149479615Y-95291719D01*
X149572747Y-95431100D01*
X149636897Y-95585972D01*
X149669600Y-95750384D01*
X149669600Y-95918016D01*
X149636897Y-96082428D01*
X149572747Y-96237300D01*
X149479615Y-96376681D01*
X149361081Y-96495215D01*
X149221700Y-96588347D01*
X149066828Y-96652497D01*
X148902416Y-96685200D01*
X148734784Y-96685200D01*
X148570372Y-96652497D01*
X148415500Y-96588347D01*
X148276119Y-96495215D01*
X148157585Y-96376681D01*
X148064453Y-96237300D01*
X148000303Y-96082428D01*
X147967600Y-95918016D01*
X147967600Y-95750384D01*
X148000303Y-95585972D01*
X148064453Y-95431100D01*
X148157585Y-95291719D01*
X148276119Y-95173185D01*
X148415500Y-95080053D01*
X148570372Y-95015903D01*
X148734784Y-94983200D01*
X148902416Y-94983200D01*
X149066828Y-95015903D01*
G37*
G36*
X146526828Y-95015903D02*
G01*
X146681700Y-95080053D01*
X146821081Y-95173185D01*
X146939615Y-95291719D01*
X147032747Y-95431100D01*
X147096897Y-95585972D01*
X147129600Y-95750384D01*
X147129600Y-95918016D01*
X147096897Y-96082428D01*
X147032747Y-96237300D01*
X146939615Y-96376681D01*
X146821081Y-96495215D01*
X146681700Y-96588347D01*
X146526828Y-96652497D01*
X146362416Y-96685200D01*
X146194784Y-96685200D01*
X146030372Y-96652497D01*
X145875500Y-96588347D01*
X145736119Y-96495215D01*
X145617585Y-96376681D01*
X145524453Y-96237300D01*
X145460303Y-96082428D01*
X145427600Y-95918016D01*
X145427600Y-95750384D01*
X145460303Y-95585972D01*
X145524453Y-95431100D01*
X145617585Y-95291719D01*
X145736119Y-95173185D01*
X145875500Y-95080053D01*
X146030372Y-95015903D01*
X146194784Y-94983200D01*
X146362416Y-94983200D01*
X146526828Y-95015903D01*
G37*
G36*
X143986828Y-95015903D02*
G01*
X144141700Y-95080053D01*
X144281081Y-95173185D01*
X144399615Y-95291719D01*
X144492747Y-95431100D01*
X144556897Y-95585972D01*
X144589600Y-95750384D01*
X144589600Y-95918016D01*
X144556897Y-96082428D01*
X144492747Y-96237300D01*
X144399615Y-96376681D01*
X144281081Y-96495215D01*
X144141700Y-96588347D01*
X143986828Y-96652497D01*
X143822416Y-96685200D01*
X143654784Y-96685200D01*
X143490372Y-96652497D01*
X143335500Y-96588347D01*
X143196119Y-96495215D01*
X143077585Y-96376681D01*
X142984453Y-96237300D01*
X142920303Y-96082428D01*
X142887600Y-95918016D01*
X142887600Y-95750384D01*
X142920303Y-95585972D01*
X142984453Y-95431100D01*
X143077585Y-95291719D01*
X143196119Y-95173185D01*
X143335500Y-95080053D01*
X143490372Y-95015903D01*
X143654784Y-94983200D01*
X143822416Y-94983200D01*
X143986828Y-95015903D01*
G37*
M02*
