M48
; DRILL file {KiCad (5.1.5)-3} date 3/24/2022 10:50:11 AM
; FORMAT={-:-/ absolute / inch / decimal}
; #@! TF.CreationDate,2022-03-24T10:50:11-07:00
; #@! TF.GenerationSoftware,Kicad,Pcbnew,(5.1.5)-3
; #@! TF.FileFunction,Plated,1,2,PTH
FMAT,2
INCH
T1C0.0157
T2C0.0295
T3C0.0315
T4C0.0354
T5C0.0394
%
G90
G05
T1
X5.759Y-3.923
X5.809Y-4.298
X5.859Y-3.898
X5.99Y-4.242
X6.106Y-4.145
X6.109Y-3.898
X6.344Y-3.882
X6.509Y-4.148
T2
X6.334Y-4.273
X6.334Y-4.373
X6.384Y-4.323
T3
X6.634Y-3.998
X6.634Y-4.098
X5.784Y-4.198
X6.184Y-4.198
X6.584Y-3.798
X6.584Y-3.8964
X6.409Y-3.823
X6.409Y-3.923
X5.659Y-3.773
X5.659Y-4.073
X5.759Y-3.773
X5.759Y-4.073
X5.859Y-3.773
X5.859Y-4.073
X5.959Y-3.773
X5.959Y-4.073
X6.059Y-3.773
X6.059Y-4.073
X6.159Y-3.773
X6.159Y-4.073
X6.259Y-3.773
X6.259Y-4.073
X6.384Y-4.073
X6.484Y-4.073
T4
X6.534Y-4.2971
X6.634Y-4.2971
T5
X5.659Y-4.348
X5.759Y-4.348
X5.859Y-4.348
X5.959Y-4.348
X6.059Y-4.348
X6.159Y-4.348
T0
M30
